<mxfile host="Electron" agent="Mozilla/5.0 (Windows NT 10.0; Win64; x64) AppleWebKit/537.36 (KHTML, like Gecko) draw.io/26.1.1 Chrome/132.0.6834.210 Electron/34.3.3 Safari/537.36" version="26.1.1">
  <diagram id="C5RBs43oDa-KdzZeNtuy" name="Page-1">
    <mxGraphModel dx="1688" dy="1880" grid="1" gridSize="10" guides="1" tooltips="1" connect="1" arrows="1" fold="1" page="1" pageScale="1" pageWidth="827" pageHeight="1169" math="0" shadow="0">
      <root>
        <mxCell id="WIyWlLk6GJQsqaUBKTNV-0" />
        <mxCell id="WIyWlLk6GJQsqaUBKTNV-1" parent="WIyWlLk6GJQsqaUBKTNV-0" />
        <mxCell id="WIyWlLk6GJQsqaUBKTNV-3" value="REST Request" style="rounded=1;whiteSpace=wrap;html=1;fontSize=12;glass=0;strokeWidth=1;shadow=0;fillColor=light-dark(#E1D5E7,#222222);strokeColor=none;fontColor=light-dark(#000000,#D7D7D9);" parent="WIyWlLk6GJQsqaUBKTNV-1" vertex="1">
          <mxGeometry x="100" y="-770" width="120" height="40" as="geometry" />
        </mxCell>
        <mxCell id="WIyWlLk6GJQsqaUBKTNV-4" value="Valid" style="rounded=0;html=1;jettySize=auto;orthogonalLoop=1;fontSize=11;endArrow=block;endFill=0;endSize=8;strokeWidth=1;shadow=0;labelBackgroundColor=none;edgeStyle=orthogonalEdgeStyle;fontColor=light-dark(#000000,#D7D7D9);" parent="WIyWlLk6GJQsqaUBKTNV-1" source="WIyWlLk6GJQsqaUBKTNV-6" target="WIyWlLk6GJQsqaUBKTNV-10" edge="1">
          <mxGeometry y="20" relative="1" as="geometry">
            <mxPoint as="offset" />
          </mxGeometry>
        </mxCell>
        <mxCell id="WIyWlLk6GJQsqaUBKTNV-5" value="Invalid" style="edgeStyle=orthogonalEdgeStyle;rounded=0;html=1;jettySize=auto;orthogonalLoop=1;fontSize=11;endArrow=block;endFill=0;endSize=8;strokeWidth=1;shadow=0;labelBackgroundColor=none;flowAnimation=0;fontColor=light-dark(#000000,#D7D7D9);" parent="WIyWlLk6GJQsqaUBKTNV-1" source="WIyWlLk6GJQsqaUBKTNV-6" target="WIyWlLk6GJQsqaUBKTNV-7" edge="1">
          <mxGeometry x="-0.1429" y="10" relative="1" as="geometry">
            <mxPoint as="offset" />
          </mxGeometry>
        </mxCell>
        <mxCell id="WIyWlLk6GJQsqaUBKTNV-6" value="Validate Inputs" style="rhombus;whiteSpace=wrap;html=1;shadow=0;fontFamily=Helvetica;fontSize=12;align=center;strokeWidth=1;spacing=6;spacingTop=-4;strokeColor=none;fillColor=light-dark(#FFFFFF,#222222);fontColor=light-dark(#000000,#D7D7D9);" parent="WIyWlLk6GJQsqaUBKTNV-1" vertex="1">
          <mxGeometry x="110" y="-510" width="100" height="80" as="geometry" />
        </mxCell>
        <mxCell id="WIyWlLk6GJQsqaUBKTNV-7" value="Exception" style="rounded=1;whiteSpace=wrap;html=1;fontSize=12;glass=0;strokeWidth=1;shadow=0;fillColor=light-dark(#F8CECC,#3B1C18);strokeColor=none;fontColor=light-dark(#000000,#D7D7D9);" parent="WIyWlLk6GJQsqaUBKTNV-1" vertex="1">
          <mxGeometry x="280" y="-490" width="120" height="40" as="geometry" />
        </mxCell>
        <mxCell id="WIyWlLk6GJQsqaUBKTNV-8" value="Success" style="rounded=0;html=1;jettySize=auto;orthogonalLoop=1;fontSize=11;endArrow=block;endFill=0;endSize=8;strokeWidth=1;shadow=0;labelBackgroundColor=none;edgeStyle=orthogonalEdgeStyle;fontColor=light-dark(#000000,#D7D7D9);" parent="WIyWlLk6GJQsqaUBKTNV-1" source="WIyWlLk6GJQsqaUBKTNV-10" target="WIyWlLk6GJQsqaUBKTNV-11" edge="1">
          <mxGeometry x="-0.3333" y="30" relative="1" as="geometry">
            <mxPoint as="offset" />
          </mxGeometry>
        </mxCell>
        <mxCell id="WIyWlLk6GJQsqaUBKTNV-9" value="Fail" style="edgeStyle=orthogonalEdgeStyle;rounded=0;html=1;jettySize=auto;orthogonalLoop=1;fontSize=11;endArrow=block;endFill=0;endSize=8;strokeWidth=1;shadow=0;labelBackgroundColor=none;fontColor=light-dark(#000000,#D7D7D9);" parent="WIyWlLk6GJQsqaUBKTNV-1" source="WIyWlLk6GJQsqaUBKTNV-10" target="WIyWlLk6GJQsqaUBKTNV-12" edge="1">
          <mxGeometry y="10" relative="1" as="geometry">
            <mxPoint as="offset" />
          </mxGeometry>
        </mxCell>
        <mxCell id="WIyWlLk6GJQsqaUBKTNV-10" value="Run Action" style="rhombus;whiteSpace=wrap;html=1;shadow=0;fontFamily=Helvetica;fontSize=12;align=center;strokeWidth=1;spacing=6;spacingTop=-4;strokeColor=none;fillColor=light-dark(#FFFFFF,#222222);fontColor=light-dark(#000000,#D7D7D9);" parent="WIyWlLk6GJQsqaUBKTNV-1" vertex="1">
          <mxGeometry x="110" y="-370" width="100" height="80" as="geometry" />
        </mxCell>
        <mxCell id="WIyWlLk6GJQsqaUBKTNV-11" value="Sucesss Response" style="rounded=1;whiteSpace=wrap;html=1;fontSize=12;glass=0;strokeWidth=1;shadow=0;fillColor=light-dark(#FFFFFF,#255230);strokeColor=none;fontColor=light-dark(#000000,#D7D7D9);" parent="WIyWlLk6GJQsqaUBKTNV-1" vertex="1">
          <mxGeometry x="100" y="-230" width="120" height="40" as="geometry" />
        </mxCell>
        <mxCell id="WIyWlLk6GJQsqaUBKTNV-12" value="Exception" style="rounded=1;whiteSpace=wrap;html=1;fontSize=12;glass=0;strokeWidth=1;shadow=0;fillColor=light-dark(#FFFFFF,#3B1C18);strokeColor=none;fontColor=light-dark(#000000,#D7D7D9);" parent="WIyWlLk6GJQsqaUBKTNV-1" vertex="1">
          <mxGeometry x="280" y="-350" width="120" height="40" as="geometry" />
        </mxCell>
        <mxCell id="CyKG06E42FLwpxowwxsm-4" value="Controller" style="rounded=1;whiteSpace=wrap;html=1;fontSize=12;glass=0;strokeWidth=1;shadow=0;strokeColor=none;fillColor=light-dark(#FFFFFF,#222222);fontColor=light-dark(#000000,#D7D7D9);" parent="WIyWlLk6GJQsqaUBKTNV-1" vertex="1">
          <mxGeometry x="100" y="-670" width="120" height="40" as="geometry" />
        </mxCell>
        <mxCell id="CyKG06E42FLwpxowwxsm-5" value="REST Response" style="rounded=1;whiteSpace=wrap;html=1;fillColor=light-dark(#FFE6CC,#222222);strokeColor=none;fontColor=light-dark(#000000,#D7D7D9);" parent="WIyWlLk6GJQsqaUBKTNV-1" vertex="1">
          <mxGeometry x="240" y="-770" width="120" height="40" as="geometry" />
        </mxCell>
        <mxCell id="CyKG06E42FLwpxowwxsm-7" value="" style="shape=flexArrow;endArrow=classic;html=1;rounded=0;fontColor=light-dark(#000000,#D7D7D9);" parent="WIyWlLk6GJQsqaUBKTNV-1" edge="1">
          <mxGeometry width="50" height="50" relative="1" as="geometry">
            <mxPoint x="159.71" y="-730" as="sourcePoint" />
            <mxPoint x="159.71" y="-670" as="targetPoint" />
            <Array as="points">
              <mxPoint x="159.71" y="-630" />
            </Array>
          </mxGeometry>
        </mxCell>
        <mxCell id="CyKG06E42FLwpxowwxsm-9" value="" style="shape=flexArrow;endArrow=classic;html=1;rounded=0;entryX=0.75;entryY=1;entryDx=0;entryDy=0;fontColor=light-dark(#000000,#D7D7D9);" parent="WIyWlLk6GJQsqaUBKTNV-1" edge="1">
          <mxGeometry width="50" height="50" relative="1" as="geometry">
            <mxPoint x="300" y="-670" as="sourcePoint" />
            <mxPoint x="300" y="-730" as="targetPoint" />
          </mxGeometry>
        </mxCell>
        <mxCell id="CyKG06E42FLwpxowwxsm-11" value="Service" style="rounded=1;whiteSpace=wrap;html=1;fontSize=12;glass=0;strokeWidth=1;shadow=0;strokeColor=none;fillColor=light-dark(#FFFFFF,#222222);fontColor=light-dark(#000000,#D7D7D9);" parent="WIyWlLk6GJQsqaUBKTNV-1" vertex="1">
          <mxGeometry x="100" y="-590" width="120" height="40" as="geometry" />
        </mxCell>
        <mxCell id="CyKG06E42FLwpxowwxsm-12" value="" style="endArrow=classic;html=1;rounded=0;entryX=0.5;entryY=0;entryDx=0;entryDy=0;exitX=0.5;exitY=1;exitDx=0;exitDy=0;fontColor=light-dark(#000000,#D7D7D9);labelBackgroundColor=none;" parent="WIyWlLk6GJQsqaUBKTNV-1" source="CyKG06E42FLwpxowwxsm-4" target="CyKG06E42FLwpxowwxsm-11" edge="1">
          <mxGeometry width="50" height="50" relative="1" as="geometry">
            <mxPoint x="200" y="-450" as="sourcePoint" />
            <mxPoint x="250" y="-500" as="targetPoint" />
          </mxGeometry>
        </mxCell>
        <mxCell id="CyKG06E42FLwpxowwxsm-13" value="" style="endArrow=classic;html=1;rounded=0;exitX=0.5;exitY=1;exitDx=0;exitDy=0;fontColor=light-dark(#000000,#D7D7D9);" parent="WIyWlLk6GJQsqaUBKTNV-1" source="CyKG06E42FLwpxowwxsm-11" target="WIyWlLk6GJQsqaUBKTNV-6" edge="1">
          <mxGeometry width="50" height="50" relative="1" as="geometry">
            <mxPoint x="200" y="-450" as="sourcePoint" />
            <mxPoint x="250" y="-500" as="targetPoint" />
          </mxGeometry>
        </mxCell>
        <mxCell id="CyKG06E42FLwpxowwxsm-14" value="Controller" style="rounded=1;whiteSpace=wrap;html=1;strokeColor=none;fillColor=light-dark(#FFFFFF,#222222);fontColor=light-dark(#000000,#D7D7D9);" parent="WIyWlLk6GJQsqaUBKTNV-1" vertex="1">
          <mxGeometry x="240" y="-670" width="120" height="40" as="geometry" />
        </mxCell>
        <mxCell id="CyKG06E42FLwpxowwxsm-15" value="" style="endArrow=classic;html=1;rounded=0;exitX=1;exitY=0.5;exitDx=0;exitDy=0;entryX=0.5;entryY=1;entryDx=0;entryDy=0;labelBackgroundColor=default;strokeColor=light-dark(#FFA88E,#3B1C18);" parent="WIyWlLk6GJQsqaUBKTNV-1" source="WIyWlLk6GJQsqaUBKTNV-7" target="CyKG06E42FLwpxowwxsm-14" edge="1">
          <mxGeometry width="50" height="50" relative="1" as="geometry">
            <mxPoint x="341" y="-490" as="sourcePoint" />
            <mxPoint x="283.48" y="-632.28" as="targetPoint" />
            <Array as="points">
              <mxPoint x="420" y="-470" />
              <mxPoint x="430" y="-470" />
              <mxPoint x="430" y="-600" />
              <mxPoint x="300" y="-600" />
            </Array>
          </mxGeometry>
        </mxCell>
        <mxCell id="CyKG06E42FLwpxowwxsm-16" value="" style="endArrow=classic;html=1;rounded=0;exitX=1;exitY=0.5;exitDx=0;exitDy=0;entryX=0.5;entryY=1;entryDx=0;entryDy=0;strokeColor=light-dark(#FFA88E,#3B1C18);" parent="WIyWlLk6GJQsqaUBKTNV-1" source="WIyWlLk6GJQsqaUBKTNV-12" target="CyKG06E42FLwpxowwxsm-14" edge="1">
          <mxGeometry width="50" height="50" relative="1" as="geometry">
            <mxPoint x="330" y="-350" as="sourcePoint" />
            <mxPoint x="290" y="-620" as="targetPoint" />
            <Array as="points">
              <mxPoint x="430" y="-330" />
              <mxPoint x="430" y="-380" />
              <mxPoint x="430" y="-600" />
              <mxPoint x="300" y="-600" />
            </Array>
          </mxGeometry>
        </mxCell>
        <mxCell id="CyKG06E42FLwpxowwxsm-17" value="" style="endArrow=classic;html=1;rounded=0;entryX=1;entryY=0.5;entryDx=0;entryDy=0;strokeColor=light-dark(#8CFFBA,#255230);" parent="WIyWlLk6GJQsqaUBKTNV-1" target="CyKG06E42FLwpxowwxsm-14" edge="1">
          <mxGeometry width="50" height="50" relative="1" as="geometry">
            <mxPoint x="220" y="-210" as="sourcePoint" />
            <mxPoint x="270" y="-260" as="targetPoint" />
            <Array as="points">
              <mxPoint x="490" y="-210" />
              <mxPoint x="490" y="-650" />
            </Array>
          </mxGeometry>
        </mxCell>
      </root>
    </mxGraphModel>
  </diagram>
</mxfile>
